<svg width="1280" height="720" xmlns="http://www.w3.org/2000/svg" xmlns:xlink="http://www.w3.org/1999/xlink" overflow="hidden"><defs><clipPath id="clip0"><rect x="0" y="0" width="1280" height="720"/></clipPath><clipPath id="clip1"><rect x="1204" y="-109" width="63" height="315"/></clipPath><clipPath id="clip2"><rect x="1142" y="-109" width="63" height="315"/></clipPath><clipPath id="clip3"><rect x="1080" y="-109" width="63" height="315"/></clipPath><clipPath id="clip4"><rect x="1018" y="-109" width="63" height="315"/></clipPath><clipPath id="clip5"><rect x="957" y="-109" width="62" height="315"/></clipPath><clipPath id="clip6"><rect x="895" y="-109" width="63" height="315"/></clipPath><clipPath id="clip7"><rect x="833" y="-109" width="63" height="315"/></clipPath><clipPath id="clip8"><rect x="771" y="-109" width="63" height="315"/></clipPath><clipPath id="clip9"><rect x="709" y="-109" width="63" height="315"/></clipPath><clipPath id="clip10"><rect x="647" y="-109" width="63" height="315"/></clipPath><clipPath id="clip11"><rect x="585" y="-109" width="63" height="315"/></clipPath><clipPath id="clip12"><rect x="524" y="-109" width="62" height="315"/></clipPath><clipPath id="clip13"><rect x="462" y="-109" width="63" height="315"/></clipPath><clipPath id="clip14"><rect x="400" y="-109" width="63" height="315"/></clipPath><clipPath id="clip15"><rect x="338" y="-109" width="63" height="315"/></clipPath><clipPath id="clip16"><rect x="276" y="-109" width="63" height="315"/></clipPath><clipPath id="clip17"><rect x="214" y="-109" width="63" height="315"/></clipPath><clipPath id="clip18"><rect x="152" y="-109" width="63" height="315"/></clipPath><clipPath id="clip19"><rect x="90" y="-109" width="63" height="315"/></clipPath><clipPath id="clip20"><rect x="29" y="-109" width="62" height="315"/></clipPath></defs><g clip-path="url(#clip0)"><rect x="0" y="0" width="1280" height="720" fill="#FFFFFF"/><path d="M29.0909 21.2525 90.9576 21.2525 90.9576 75.6525 29.0909 75.6525Z" fill="#DAE3F3" fill-rule="evenodd"/><path d="M90.9576 21.2525 152.824 21.2525 152.824 75.6525 90.9576 75.6525Z" fill="#FFFF00" fill-rule="evenodd"/><path d="M152.824 21.2525 214.691 21.2525 214.691 75.6525 152.824 75.6525Z" fill="#FFFF00" fill-rule="evenodd"/><path d="M214.691 21.2525 276.558 21.2525 276.558 75.6525 214.691 75.6525Z" fill="#DAE3F3" fill-rule="evenodd"/><path d="M276.558 21.2525 338.424 21.2525 338.424 75.6525 276.558 75.6525Z" fill="#DAE3F3" fill-rule="evenodd"/><path d="M338.424 21.2525 400.291 21.2525 400.291 75.6525 338.424 75.6525Z" fill="#DAE3F3" fill-rule="evenodd"/><path d="M400.291 21.2525 462.158 21.2525 462.158 75.6525 400.291 75.6525Z" fill="#FFFF00" fill-rule="evenodd"/><path d="M462.158 21.2525 524.024 21.2525 524.024 75.6525 462.158 75.6525Z" fill="#FFFF00" fill-rule="evenodd"/><path d="M524.024 21.2525 585.891 21.2525 585.891 75.6525 524.024 75.6525Z" fill="#DAE3F3" fill-rule="evenodd"/><path d="M585.891 21.2525 647.758 21.2525 647.758 75.6525 585.891 75.6525Z" fill="#DAE3F3" fill-rule="evenodd"/><path d="M647.758 21.2525 709.624 21.2525 709.624 75.6525 647.758 75.6525Z" fill="#DAE3F3" fill-rule="evenodd"/><path d="M709.624 21.2525 771.491 21.2525 771.491 75.6525 709.624 75.6525Z" fill="#DAE3F3" fill-rule="evenodd"/><path d="M771.491 21.2525 833.358 21.2525 833.358 75.6525 771.491 75.6525Z" fill="#DAE3F3" fill-rule="evenodd"/><path d="M833.358 21.2525 895.224 21.2525 895.224 75.6525 833.358 75.6525Z" fill="#DAE3F3" fill-rule="evenodd"/><path d="M895.224 21.2525 957.091 21.2525 957.091 75.6525 895.224 75.6525Z" fill="#DAE3F3" fill-rule="evenodd"/><path d="M957.091 21.2525 1018.96 21.2525 1018.96 75.6525 957.091 75.6525Z" fill="#DAE3F3" fill-rule="evenodd"/><path d="M1018.96 21.2525 1080.82 21.2525 1080.82 75.6525 1018.96 75.6525Z" fill="#DAE3F3" fill-rule="evenodd"/><path d="M1080.82 21.2525 1142.69 21.2525 1142.69 75.6525 1080.82 75.6525Z" fill="#DAE3F3" fill-rule="evenodd"/><path d="M1142.69 21.2525 1204.56 21.2525 1204.56 75.6525 1142.69 75.6525Z" fill="#DAE3F3" fill-rule="evenodd"/><path d="M1204.56 21.2525 1266.42 21.2525 1266.42 75.6525 1204.56 75.6525Z" fill="#DAE3F3" fill-rule="evenodd"/><path d="M90.9576 20.5858 90.9576 76.3192" stroke="#000000" stroke-width="1.33333" stroke-linejoin="round" stroke-miterlimit="10" fill="none" fill-rule="evenodd"/><path d="M152.824 20.5858 152.824 76.3192" stroke="#000000" stroke-width="1.33333" stroke-linejoin="round" stroke-miterlimit="10" fill="none" fill-rule="evenodd"/><path d="M214.691 20.5858 214.691 76.3192" stroke="#000000" stroke-width="1.33333" stroke-linejoin="round" stroke-miterlimit="10" fill="none" fill-rule="evenodd"/><path d="M276.558 20.5858 276.558 76.3192" stroke="#000000" stroke-width="1.33333" stroke-linejoin="round" stroke-miterlimit="10" fill="none" fill-rule="evenodd"/><path d="M338.424 20.5858 338.424 76.3192" stroke="#000000" stroke-width="1.33333" stroke-linejoin="round" stroke-miterlimit="10" fill="none" fill-rule="evenodd"/><path d="M400.291 20.5858 400.291 76.3192" stroke="#000000" stroke-width="1.33333" stroke-linejoin="round" stroke-miterlimit="10" fill="none" fill-rule="evenodd"/><path d="M462.158 20.5858 462.158 76.3192" stroke="#000000" stroke-width="1.33333" stroke-linejoin="round" stroke-miterlimit="10" fill="none" fill-rule="evenodd"/><path d="M524.024 20.5858 524.024 76.3192" stroke="#000000" stroke-width="1.33333" stroke-linejoin="round" stroke-miterlimit="10" fill="none" fill-rule="evenodd"/><path d="M585.891 20.5858 585.891 76.3192" stroke="#000000" stroke-width="1.33333" stroke-linejoin="round" stroke-miterlimit="10" fill="none" fill-rule="evenodd"/><path d="M647.758 20.5858 647.758 76.3192" stroke="#000000" stroke-width="1.33333" stroke-linejoin="round" stroke-miterlimit="10" fill="none" fill-rule="evenodd"/><path d="M709.624 20.5858 709.624 76.3192" stroke="#000000" stroke-width="1.33333" stroke-linejoin="round" stroke-miterlimit="10" fill="none" fill-rule="evenodd"/><path d="M771.491 20.5858 771.491 76.3192" stroke="#000000" stroke-width="1.33333" stroke-linejoin="round" stroke-miterlimit="10" fill="none" fill-rule="evenodd"/><path d="M833.358 20.5858 833.358 76.3192" stroke="#000000" stroke-width="1.33333" stroke-linejoin="round" stroke-miterlimit="10" fill="none" fill-rule="evenodd"/><path d="M895.224 20.5858 895.224 76.3192" stroke="#000000" stroke-width="1.33333" stroke-linejoin="round" stroke-miterlimit="10" fill="none" fill-rule="evenodd"/><path d="M957.091 20.5858 957.091 76.3192" stroke="#000000" stroke-width="1.33333" stroke-linejoin="round" stroke-miterlimit="10" fill="none" fill-rule="evenodd"/><path d="M1018.96 20.5858 1018.96 76.3192" stroke="#000000" stroke-width="1.33333" stroke-linejoin="round" stroke-miterlimit="10" fill="none" fill-rule="evenodd"/><path d="M1080.82 20.5858 1080.82 76.3192" stroke="#000000" stroke-width="1.33333" stroke-linejoin="round" stroke-miterlimit="10" fill="none" fill-rule="evenodd"/><path d="M1142.69 20.5858 1142.69 76.3192" stroke="#000000" stroke-width="1.33333" stroke-linejoin="round" stroke-miterlimit="10" fill="none" fill-rule="evenodd"/><path d="M1204.56 20.5858 1204.56 76.3192" stroke="#000000" stroke-width="1.33333" stroke-linejoin="round" stroke-miterlimit="10" fill="none" fill-rule="evenodd"/><path d="M29.0909 20.5858 29.0909 76.3192" stroke="#000000" stroke-width="1.33333" stroke-linejoin="round" stroke-miterlimit="10" fill="none" fill-rule="evenodd"/><path d="M1266.42 20.5858 1266.42 76.3192" stroke="#000000" stroke-width="1.33333" stroke-linejoin="round" stroke-miterlimit="10" fill="none" fill-rule="evenodd"/><path d="M28.4243 21.2525 1267.09 21.2525" stroke="#000000" stroke-width="1.33333" stroke-linejoin="round" stroke-miterlimit="10" fill="none" fill-rule="evenodd"/><path d="M28.4243 75.6525 1267.09 75.6525" stroke="#000000" stroke-width="1.33333" stroke-linejoin="round" stroke-miterlimit="10" fill="none" fill-rule="evenodd"/><g clip-path="url(#clip1)"><text font-family="Cambria Math,Cambria Math_MSFontService,sans-serif" font-weight="700" font-size="37" transform="translate(1225.32 62)">8</text></g><g clip-path="url(#clip2)"><text font-family="Cambria Math,Cambria Math_MSFontService,sans-serif" font-weight="700" font-size="37" transform="translate(1163.46 62)">8</text></g><g clip-path="url(#clip3)"><text font-family="Cambria Math,Cambria Math_MSFontService,sans-serif" font-weight="700" font-size="37" transform="translate(1101.59 62)">3</text></g><g clip-path="url(#clip4)"><text font-family="Cambria Math,Cambria Math_MSFontService,sans-serif" font-weight="700" font-size="37" transform="translate(1039.72 62)">7</text></g><g clip-path="url(#clip5)"><text font-family="Cambria Math,Cambria Math_MSFontService,sans-serif" font-weight="700" font-size="37" transform="translate(977.858 62)">9</text></g><g clip-path="url(#clip6)"><text font-family="Cambria Math,Cambria Math_MSFontService,sans-serif" font-weight="700" font-size="37" transform="translate(915.991 62)">6</text></g><g clip-path="url(#clip7)"><text font-family="Cambria Math,Cambria Math_MSFontService,sans-serif" font-weight="700" font-size="37" transform="translate(854.124 62)">8</text></g><g clip-path="url(#clip8)"><text font-family="Cambria Math,Cambria Math_MSFontService,sans-serif" font-weight="700" font-size="37" transform="translate(792.258 62)">7</text></g><g clip-path="url(#clip9)"><text font-family="Cambria Math,Cambria Math_MSFontService,sans-serif" font-weight="700" font-size="37" transform="translate(730.391 62)">2</text></g><g clip-path="url(#clip10)"><text font-family="Cambria Math,Cambria Math_MSFontService,sans-serif" font-weight="700" font-size="37" transform="translate(668.524 62)">2</text></g><g clip-path="url(#clip11)"><text font-family="Cambria Math,Cambria Math_MSFontService,sans-serif" font-weight="700" font-size="37" transform="translate(606.658 62)">2</text></g><g clip-path="url(#clip12)"><text font-family="Cambria Math,Cambria Math_MSFontService,sans-serif" font-weight="700" font-size="37" transform="translate(544.791 62)">2</text></g><g clip-path="url(#clip13)"><text font-family="Cambria Math,Cambria Math_MSFontService,sans-serif" font-weight="700" font-size="37" transform="translate(482.924 62)">1</text></g><g clip-path="url(#clip14)"><text font-family="Cambria Math,Cambria Math_MSFontService,sans-serif" font-weight="700" font-size="37" transform="translate(421.058 62)">1</text></g><g clip-path="url(#clip15)"><text font-family="Cambria Math,Cambria Math_MSFontService,sans-serif" font-weight="700" font-size="37" transform="translate(359.191 62)">5</text></g><g clip-path="url(#clip16)"><text font-family="Cambria Math,Cambria Math_MSFontService,sans-serif" font-weight="700" font-size="37" transform="translate(297.324 62)">4</text></g><g clip-path="url(#clip17)"><text font-family="Cambria Math,Cambria Math_MSFontService,sans-serif" font-weight="700" font-size="37" transform="translate(235.458 62)">2</text></g><g clip-path="url(#clip18)"><text font-family="Cambria Math,Cambria Math_MSFontService,sans-serif" font-weight="700" font-size="37" transform="translate(173.591 62)">1</text></g><g clip-path="url(#clip19)"><text font-family="Cambria Math,Cambria Math_MSFontService,sans-serif" font-weight="700" font-size="37" transform="translate(111.724 62)">1</text></g><g clip-path="url(#clip20)"><text font-family="Cambria Math,Cambria Math_MSFontService,sans-serif" font-weight="700" font-size="37" transform="translate(49.8575 62)">3</text></g><path d="M640 112.275 931.394 112.275 931.394 198.675 640 198.675Z" fill="#92D050" fill-rule="evenodd"/><path d="M931.394 112.275 1222.79 112.275 1222.79 198.675 931.394 198.675Z" fill="#92D050" fill-rule="evenodd"/><path d="M640 198.675 931.394 198.675 931.394 253.075 640 253.075Z" fill="#DAE3F3" fill-rule="evenodd"/><path d="M640 253.075 931.394 253.075 931.394 307.475 640 307.475Z" fill="#FFFF00" fill-rule="evenodd"/><path d="M640 307.475 931.394 307.475 931.394 361.875 640 361.875Z" fill="#DAE3F3" fill-rule="evenodd"/><path d="M640 361.875 931.394 361.875 931.394 416.275 640 416.275Z" fill="#DAE3F3" fill-rule="evenodd"/><path d="M640 416.275 931.394 416.275 931.394 470.675 640 470.675Z" fill="#DAE3F3" fill-rule="evenodd"/><path d="M640 470.675 931.394 470.675 931.394 525.075 640 525.075Z" fill="#DAE3F3" fill-rule="evenodd"/><path d="M640 525.075 931.394 525.075 931.394 579.475 640 579.475Z" fill="#DAE3F3" fill-rule="evenodd"/><path d="M640 579.475 931.394 579.475 931.394 633.875 640 633.875Z" fill="#DAE3F3" fill-rule="evenodd"/><path d="M640 633.875 931.394 633.875 931.394 688.275 640 688.275Z" fill="#DAE3F3" fill-rule="evenodd"/><path d="M931.394 111.608 931.394 688.941" stroke="#000000" stroke-width="1.33333" stroke-linejoin="round" stroke-miterlimit="10" fill="none" fill-rule="evenodd"/><path d="M639.333 198.675 1223.45 198.675" stroke="#000000" stroke-width="1.33333" stroke-linejoin="round" stroke-miterlimit="10" fill="none" fill-rule="evenodd"/><path d="M639.333 253.075 1223.45 253.075" stroke="#000000" stroke-width="1.33333" stroke-linejoin="round" stroke-miterlimit="10" fill="none" fill-rule="evenodd"/><path d="M639.333 307.475 1223.45 307.475" stroke="#000000" stroke-width="1.33333" stroke-linejoin="round" stroke-miterlimit="10" fill="none" fill-rule="evenodd"/><path d="M639.333 361.875 1223.45 361.875" stroke="#000000" stroke-width="1.33333" stroke-linejoin="round" stroke-miterlimit="10" fill="none" fill-rule="evenodd"/><path d="M639.333 416.275 1223.45 416.275" stroke="#000000" stroke-width="1.33333" stroke-linejoin="round" stroke-miterlimit="10" fill="none" fill-rule="evenodd"/><path d="M639.333 470.675 1223.45 470.675" stroke="#000000" stroke-width="1.33333" stroke-linejoin="round" stroke-miterlimit="10" fill="none" fill-rule="evenodd"/><path d="M639.333 525.075 1223.45 525.075" stroke="#000000" stroke-width="1.33333" stroke-linejoin="round" stroke-miterlimit="10" fill="none" fill-rule="evenodd"/><path d="M639.333 579.475 1223.45 579.475" stroke="#000000" stroke-width="1.33333" stroke-linejoin="round" stroke-miterlimit="10" fill="none" fill-rule="evenodd"/><path d="M639.333 633.875 1223.45 633.875" stroke="#000000" stroke-width="1.33333" stroke-linejoin="round" stroke-miterlimit="10" fill="none" fill-rule="evenodd"/><path d="M640 111.608 640 688.941" stroke="#000000" stroke-width="1.33333" stroke-linejoin="round" stroke-miterlimit="10" fill="none" fill-rule="evenodd"/><path d="M1222.79 111.608 1222.79 688.941" stroke="#000000" stroke-width="1.33333" stroke-linejoin="round" stroke-miterlimit="10" fill="none" fill-rule="evenodd"/><path d="M639.333 112.275 1223.45 112.275" stroke="#000000" stroke-width="1.33333" stroke-linejoin="round" stroke-miterlimit="10" fill="none" fill-rule="evenodd"/><path d="M639.333 688.275 1223.45 688.275" stroke="#000000" stroke-width="1.33333" stroke-linejoin="round" stroke-miterlimit="10" fill="none" fill-rule="evenodd"/><text font-family="Calibri,Calibri_MSFontService,sans-serif" font-weight="700" font-size="32" transform="translate(1034.16 147)">VALUE</text><text font-family="Calibri,Calibri_MSFontService,sans-serif" font-weight="700" font-size="32" transform="translate(998.104 185)">(Frequency)</text><text font-family="Calibri,Calibri_MSFontService,sans-serif" font-weight="700" font-size="32" transform="translate(760.784 147)">KEY</text><text font-family="Calibri,Calibri_MSFontService,sans-serif" font-weight="700" font-size="32" transform="translate(728.384 185)">(Integer)</text><text font-family="Calibri,Calibri_MSFontService,sans-serif" font-weight="400" font-size="32" transform="translate(1069.01 237)">2</text><text font-family="Cambria Math,Cambria Math_MSFontService,sans-serif" font-weight="700" font-size="37" transform="translate(775.53 239)">3</text><text font-family="Calibri,Calibri_MSFontService,sans-serif" font-weight="400" font-size="32" transform="translate(1069.01 291)">4</text><text font-family="Cambria Math,Cambria Math_MSFontService,sans-serif" font-weight="700" font-size="37" transform="translate(775.53 294)">1</text><text font-family="Calibri,Calibri_MSFontService,sans-serif" font-weight="400" font-size="32" transform="translate(1069.01 345)">5</text><text font-family="Cambria Math,Cambria Math_MSFontService,sans-serif" font-weight="700" font-size="37" transform="translate(775.53 348)">2</text><text font-family="Calibri,Calibri_MSFontService,sans-serif" font-weight="400" font-size="32" transform="translate(1069.01 400)">1</text><text font-family="Cambria Math,Cambria Math_MSFontService,sans-serif" font-weight="700" font-size="37" transform="translate(775.53 403)">4</text><text font-family="Calibri,Calibri_MSFontService,sans-serif" font-weight="400" font-size="32" transform="translate(1069.01 454)">1</text><text font-family="Cambria Math,Cambria Math_MSFontService,sans-serif" font-weight="700" font-size="37" transform="translate(775.53 457)">5</text><text font-family="Calibri,Calibri_MSFontService,sans-serif" font-weight="400" font-size="32" transform="translate(1069.01 509)">2</text><text font-family="Cambria Math,Cambria Math_MSFontService,sans-serif" font-weight="700" font-size="37" transform="translate(775.53 511)">7</text><text font-family="Calibri,Calibri_MSFontService,sans-serif" font-weight="400" font-size="32" transform="translate(1069.01 563)">3</text><text font-family="Cambria Math,Cambria Math_MSFontService,sans-serif" font-weight="700" font-size="37" transform="translate(775.53 566)">8</text><text font-family="Calibri,Calibri_MSFontService,sans-serif" font-weight="400" font-size="32" transform="translate(1069.01 617)">1</text><text font-family="Cambria Math,Cambria Math_MSFontService,sans-serif" font-weight="700" font-size="37" transform="translate(775.53 620)">6</text><text font-family="Calibri,Calibri_MSFontService,sans-serif" font-weight="400" font-size="32" transform="translate(1069.01 672)">1</text><text font-family="Cambria Math,Cambria Math_MSFontService,sans-serif" font-weight="700" font-size="37" transform="translate(775.53 675)">9</text><rect x="85" y="370" width="317" height="61" stroke="#000000" stroke-width="2" stroke-linejoin="round" stroke-miterlimit="10" fill="#FFF2CC"/><text font-family="Calibri,Calibri_MSFontService,sans-serif" font-weight="400" font-size="43" transform="translate(104.207 414)">Array to Counter</text><path d="M248 76 248 349.926 240 349.926 240 76ZM256 345.925 244 369.925 232 345.925Z" fill="#5B9BD5"/><path d="M402 396 620.118 396 620.118 404 402 404ZM616.118 388 640.118 400 616.118 412Z" fill="#5B9BD5"/></g></svg>